PathFileType	4	(x/y/z)	S05_M20_T08
DataRate	CameraRate	NumFrames	NumMarkers	Units	OrigDataRate	OrigDataStartFrame	OrigNumFrames
240	240	4	50	mm	240	1	518
Frame#	Time	Sternum			R.Acromium			L.Acromium			Top.Head			R.ASIS			L.ASIS			R.PSIS			L.PSIS			R.Great.Tro			L.Great.Tro			R.Iliac.Crest			L.Iliac.Crest			V.Sacral			R.Thigh.Upper.Post			R.Thigh.Lower.Ant			R.Thigh.Lower.Post			R.Thigh.Upper.Ant			R.Knee.Lat			R.Knee.Med			R.Shank.Upper.Post			R.Shank.Lower.Ant			R.Shank.Lower.Post			R.Shank.Upper.Ant			R.Ankle.Lat			R.Ankle.Med			R.Heel.Upper			R.Heel.Med			R.Heel.Lat			R.Toe.Lat			R.Toe.Med			R.Toe.Tip			L.Thigh.Upper.Post			L.Thigh.Lower.Ant			L.Thigh.Lower.Post			L.Thigh.Upper.Ant			L.Knee.Lat			L.Shank.Upper.Post			L.Shank.Lower.Ant			L.Shank.Lower.Post			L.Shank.Upper.Ant			L.Ankle.Lat			L.Ankle.Med			L.Heel.Upper			L.Heel.Med			L.Heel.Lat			L.Toe.Lat			L.Toe.Med			L.Toe.Tip			Cervical.Spine			Back			
		X1	Y1	Z1	X2	Y2	Z2	X3	Y3	Z3	X4	Y4	Z4	X5	Y5	Z5	X6	Y6	Z6	X7	Y7	Z7	X8	Y8	Z8	X9	Y9	Z9	X10	Y10	Z10	X11	Y11	Z11	X12	Y12	Z12	X13	Y13	Z13	X14	Y14	Z14	X15	Y15	Z15	X16	Y16	Z16	X17	Y17	Z17	X18	Y18	Z18	X19	Y19	Z19	X20	Y20	Z20	X21	Y21	Z21	X22	Y22	Z22	X23	Y23	Z23	X24	Y24	Z24	X25	Y25	Z25	X26	Y26	Z26	X27	Y27	Z27	X28	Y28	Z28	X29	Y29	Z29	X30	Y30	Z30	X31	Y31	Z31	X32	Y32	Z32	X33	Y33	Z33	X34	Y34	Z34	X35	Y35	Z35	X36	Y36	Z36	X37	Y37	Z37	X38	Y38	Z38	X39	Y39	Z39	X40	Y40	Z40	X41	Y41	Z41	X42	Y42	Z42	X43	Y43	Z43	X44	Y44	Z44	X45	Y45	Z45	X46	Y46	Z46	X47	Y47	Z47	X48	Y48	Z48	X49	Y49	Z49	X50	Y50	Z50	

1	0	-894.44	1219.1	306.81	-988.31	1482.9	456.21	-986.09	1495.8	127.29	-994.97	1777.5	270.17	-987.06	966.45	445.24	-934	962.84	199.54	NaN	NaN	NaN	-1146.5	987.28	229.15	-1097.9	904.16	490.19	-997.13	887.16	105.83	-1075.1	1060.8	463.17	-1019.4	1038.2	131.25	-1174.7	960.88	286.58	-1116.9	674.32	481.59	-1086.1	586.01	433.81	-1154.6	595.49	454.3	-1049.6	665.02	463.47	-1201.8	510.97	432.28	NaN	NaN	NaN	-1367.8	318.2	407.04	-1337.6	233.99	406.31	-1402.3	252.17	387.81	-1308.4	302.91	424.85	-1399.3	145.14	382.99	-1362.9	168.39	296.42	-1475.5	108.86	320.35	-1468.7	74.64	292.31	-1471	79.292	355.78	-1313.6	36.078	414.9	-1274.4	41.494	294.61	-1212.8	47.049	341.98	-902.5	663.32	111.64	-803.29	630.83	152.33	-854.94	582.39	130.94	-842.56	711.39	135.63	-804.65	513.66	141.7	-764.71	307.69	140.73	-675.89	292.58	140.51	-728.1	245.48	157.81	-713.34	351.54	128.92	-626.74	145.72	161.88	-601.66	179.56	246.82	-637.65	65.602	219.69	-613.32	57.073	251.47	-624.76	46.623	190.29	-473.49	148.4	127.83	-462.02	181.97	243.18	-421.09	226.05	184.45	-1038.1	1524.8	295.98	-1166.3	1250.4	288.53
2	0.0041667	-888.9	1218.1	306.44	-982.9	1482.1	455.36	-980.56	1494.6	126.42	-989.88	1776.5	268.99	-982.03	965.55	445.12	-928.16	961.84	199.56	-1159.6	994.32	317.59	-1140.8	986.44	228.45	-1093.2	903.5	489.68	-990.94	886.27	105.69	-1070.1	1060	462.71	-1013.4	1037.1	130.92	-1169	959.98	285.85	-1113	673.64	480.91	-1082.2	585.42	434.2	-1150.8	595	454.07	-1045.6	664.32	463.68	-1198.2	510.66	432.27	NaN	NaN	NaN	-1365.6	319.12	406.91	-1335.8	234.61	406.29	-1400.4	253.29	387.7	-1306.1	303.35	424.83	-1398.3	146.33	383.02	-1361.7	169.21	296.42	-1474.7	110.58	320.34	-1468.1	76.362	292.28	-1471.1	81.156	355.93	-1313.5	36.19	414.91	-1274.1	41.544	294.62	-1212.8	46.815	342.03	-896.38	662.52	111.73	-797.34	629.98	152.73	-848.92	581.58	131.28	-836.5	710.55	135.87	-798.92	512.72	141.89	-760.7	306.52	140.33	-672.51	290.2	140.89	-725.26	243.72	157.76	-709.26	349.58	129.2	-625.13	142.97	162.03	-600.09	176.33	247.11	-637.15	63.204	219.67	-612.84	54.242	251.48	-624.26	43.993	190.26	-471.93	144.35	128.38	-460.42	177.43	243.84	-419.04	221.4	185.36	-1032.6	1523.9	295.05	-1160.4	1249.3	287.84
3	0.0083333	-883.12	1217	306.05	-977.25	1481.3	454.47	-974.78	1493.4	125.52	-984.58	1775.4	267.75	-976.78	964.64	445	-922.05	960.83	199.58	-1154	993.51	316.79	-1134.8	985.58	227.7	-1088.2	902.82	489.14	-984.47	885.36	105.54	-1064.8	1059.1	462.22	-1007	1036	130.58	-1163.1	959.06	285.06	-1108.8	672.97	480.24	-1078	584.8	434.6	-1146.9	594.49	453.83	-1041.3	663.6	463.92	-1194.4	510.34	432.27	NaN	NaN	NaN	-1363.1	320.08	406.79	-1333.9	235.28	406.28	-1398.5	254.47	387.58	-1303.8	303.83	424.82	-1397.3	147.59	383.06	-1360.4	170.08	296.44	-1473.9	112.42	320.35	-1467.5	78.201	292.25	-1471.2	83.119	356.07	-1313.3	36.309	414.92	-1273.9	41.595	294.63	-1212.7	46.577	342.08	-890.04	661.68	111.82	-791.18	629.06	153.13	-842.72	580.72	131.63	-830.19	709.66	136.11	-793	511.73	142.07	-756.54	305.3	139.93	-668.98	287.75	141.27	-722.28	241.9	157.72	-705.02	347.57	129.49	-623.4	140.18	162.19	-598.36	173.05	247.41	-636.57	60.865	219.66	-612.28	51.439	251.5	-623.7	41.4	190.24	-470.25	140.15	128.93	-458.66	172.74	244.5	-416.83	216.56	186.26	-1026.9	1522.9	294.08	-1154.3	1248.3	287.11
4	0.0125	-877.13	1216	305.66	-971.39	1480.5	453.55	-968.78	1492.2	124.57	-979.09	1774.3	266.45	-971.33	963.71	444.87	-915.72	959.8	199.61	-1148.1	992.68	315.94	-1128.6	984.7	226.93	-1083.1	902.13	488.57	-977.76	884.43	105.39	-1059.3	1058.2	461.71	-1000.4	1034.9	130.22	-1157	958.12	284.24	-1104.5	672.29	479.56	-1073.7	584.17	435	-1142.8	593.97	453.59	-1036.8	662.88	464.18	-1190.4	510.01	432.29	NaN	NaN	NaN	-1360.6	321.09	406.67	-1331.9	236	406.28	-1396.4	255.7	387.47	-1301.2	304.35	424.81	-1396.2	148.93	383.11	-1359	171	296.48	-1472.9	114.38	320.35	-1466.7	80.157	292.22	-1471.1	85.177	356.21	-1313.1	36.435	414.93	-1273.6	41.646	294.65	-1212.6	46.339	342.13	-883.53	660.82	111.92	-784.85	628.07	153.5	-836.37	579.82	131.97	-823.68	708.72	136.32	-786.93	510.7	142.26	-752.24	304.06	139.57	-665.31	285.29	141.67	-719.15	240.06	157.7	-700.64	345.53	129.79	-621.53	137.39	162.35	-596.47	169.75	247.72	-635.89	58.633	219.67	-611.66	48.711	251.54	-623.06	38.894	190.25	-468.46	135.85	129.46	-456.75	167.92	245.14	-414.45	211.56	187.13	-1021	1521.9	293.07	-1148	1247.3	286.34
